<svg width="152" height="68" viewBox="0 0 152 68" fill="none" xmlns="http://www.w3.org/2000/svg">
<path d="M55.3281 19.6915C56.8903 19.6915 58.1654 18.4238 58.1654 16.8706C58.1654 15.3175 56.8903 14.0498 55.3281 14.0498C53.7658 14.0498 52.4907 15.3175 52.4907 16.8706C52.4907 18.4196 53.7658 19.6915 55.3281 19.6915Z" fill="#6D6D6D"/>
<path d="M55.6111 6.71631C50.08 6.71631 45.6804 11.0861 45.6804 16.5892L41.8509 19.6913H49.0835V16.308C49.2271 12.9247 52.0644 10.1038 55.6069 10.1038C59.1535 10.1038 62.1302 13.0674 62.1302 16.5892V23.9226L59.8587 23.4986C51.9167 21.9455 43.9704 23.6413 37.1642 28.0111C34.8926 29.5643 32.9082 31.2559 31.2067 33.2288C26.8113 38.1653 24.6833 45.2174 23.6869 49.4486C23.5433 49.8726 23.5433 50.2966 23.404 50.5778C23.1211 52.1309 22.9775 52.9747 22.9775 52.9747L29.218 54.3851V60.4465H35.3191C40.1409 60.4465 44.6798 59.3174 48.6529 57.3445L49.6451 59.8841H52.7653L51.2031 55.7955C51.7689 55.5143 52.1953 55.0903 52.7653 54.8091L54.7498 59.8841H57.87L55.0326 52.832C61.2731 47.333 65.2462 39.2945 65.2462 30.2695V25.8955V24.2038V16.5892C65.5418 11.0861 61.0029 6.71631 55.6111 6.71631ZM27.3813 50.4351L27.9471 47.8955C29.3658 40.9861 33.3389 34.9205 39.1529 30.9747C40.998 29.8455 42.8389 28.859 44.8275 28.0111C36.4591 32.6663 30.6409 40.9861 29.5093 50.8591L27.3813 50.4351ZM32.6295 54.6663V54.1039C32.6295 39.4372 44.5447 27.5913 59.2971 27.5913L32.6295 54.6663ZM61.9951 30.2695C61.9951 44.7934 50.08 56.6392 35.4711 56.782L61.9951 29.9882V30.2695Z" fill="#6D6D6D"/>
<path d="M22.8042 44.4578C23.5937 42.0399 24.51 39.8991 25.3713 38.1403C25.5866 37.6953 25.5444 37.1748 25.2657 36.7676L24.8562 36.1757C24.2608 35.3152 22.952 35.4034 22.4833 36.3395C21.4911 38.3375 20.4144 40.8226 19.5066 43.6728C19.2068 44.6131 19.9668 45.5534 20.9506 45.461L21.6219 45.398C22.1708 45.3393 22.6353 44.9741 22.8042 44.4578Z" fill="#6D6D6D"/>
<path d="M16.6018 44.9615C18.012 39.8235 20.0429 35.5671 21.5883 32.7798C21.8416 32.3265 21.812 31.7724 21.5165 31.3442L21.1154 30.7649C20.5327 29.9254 19.2703 29.9884 18.772 30.8783C17.0831 33.8796 14.82 38.5726 13.2705 44.3318C13.0256 45.2511 13.7856 46.1326 14.7356 46.0403L15.3943 45.9773C15.9727 45.9227 16.4498 45.5156 16.6018 44.9615Z" fill="#6D6D6D"/>
<path d="M10.3953 45.5154C12.4853 37.0697 16.1038 30.5843 17.9446 27.6375C18.236 27.1758 18.2233 26.5881 17.9109 26.1347L17.5224 25.5723C16.9609 24.7621 15.7533 24.7831 15.2213 25.6142C13.2664 28.6785 9.3102 35.6467 7.05553 44.9403C6.83598 45.8554 7.58753 46.7117 8.52909 46.6236L9.18353 46.5606C9.77464 46.5103 10.256 46.0863 10.3953 45.5154Z" fill="#6D6D6D"/>
<path d="M77.7436 44.1846C76.688 43.6851 75.8563 43.0093 75.244 42.153C74.6318 41.2966 74.3025 40.3396 74.2603 39.2776H77.8829C77.9463 40.0205 78.2883 40.6376 78.9131 41.1371C79.538 41.6367 80.3191 41.8843 81.2607 41.8843C82.2445 41.8843 83.0045 41.687 83.5449 41.2966C84.0854 40.9063 84.3598 40.4025 84.3598 39.7897C84.3598 39.1348 84.0558 38.6479 83.452 38.3289C82.8483 38.0099 81.8898 37.6615 80.5809 37.2795C79.31 36.9185 78.2798 36.5701 77.4818 36.23C76.6838 35.89 75.9956 35.3737 75.4087 34.6727C74.826 33.9759 74.5347 33.0524 74.5347 31.9106C74.5347 30.9788 74.8007 30.1266 75.3327 29.3543C75.8647 28.5819 76.6247 27.9732 77.6211 27.5283C78.6134 27.0833 79.7534 26.8608 81.0454 26.8608C82.9707 26.8608 84.5203 27.3646 85.694 28.3678C86.872 29.3752 87.5011 30.7437 87.5814 32.4815H84.0811C84.0178 31.6966 83.7138 31.0753 83.1607 30.6094C82.6076 30.1434 81.8603 29.9125 80.9187 29.9125C79.9983 29.9125 79.2931 30.093 78.7991 30.454C78.3094 30.815 78.0645 31.2894 78.0645 31.8813C78.0645 32.3472 78.2291 32.7376 78.5543 33.0566C78.8794 33.3756 79.2805 33.6233 79.7491 33.8038C80.222 33.9843 80.9145 34.211 81.8349 34.488C83.0636 34.828 84.0727 35.1722 84.858 35.5206C85.6476 35.869 86.3274 36.3854 86.8974 37.0612C87.4716 37.7412 87.7671 38.6395 87.7883 39.7603C87.7883 40.7551 87.5223 41.645 86.9903 42.43C86.4583 43.215 85.7067 43.8278 84.7356 44.2728C83.7645 44.7177 82.6203 44.9402 81.3114 44.9402C79.9898 44.9318 78.7949 44.6842 77.7436 44.1846Z" fill="#6D6D6D"/>
<path d="M91.4619 31.1509C92.1671 29.795 93.1297 28.7414 94.3457 27.99C95.5617 27.2386 96.9086 26.8608 98.3822 26.8608C99.7122 26.8608 100.873 27.1295 101.866 27.671C102.858 28.2125 103.652 28.8841 104.243 29.6859V27.1463H107.772V44.6464H104.243V42.0438C103.647 42.8708 102.841 43.5592 101.819 44.1091C100.797 44.659 99.6277 44.936 98.3188 44.936C96.8664 44.936 95.5364 44.5498 94.3288 43.7775C93.1213 43.0051 92.1671 41.9263 91.4577 40.5369C90.7484 39.1474 90.3979 37.5775 90.3979 35.8187C90.4064 34.0599 90.7568 32.5067 91.4619 31.1509ZM103.525 32.7376C103.044 31.8477 102.414 31.1719 101.638 30.7059C100.861 30.24 100.02 30.0091 99.1211 30.0091C98.2217 30.0091 97.3815 30.2358 96.6046 30.6933C95.8277 31.1509 95.1986 31.8141 94.7173 32.6956C94.2359 33.5729 93.9953 34.6181 93.9953 35.8229C93.9953 37.0276 94.2359 38.0896 94.7173 39.0005C95.1986 39.9114 95.8319 40.604 96.6215 41.0826C97.4068 41.5569 98.2428 41.7962 99.1211 41.7962C100.02 41.7962 100.861 41.5653 101.638 41.0994C102.414 40.6334 103.044 39.9492 103.525 39.0509C104.006 38.1526 104.247 37.099 104.247 35.89C104.247 34.6769 104.006 33.6275 103.525 32.7376Z" fill="#6D6D6D"/>
<path d="M114.946 44.1846C113.89 43.6851 113.058 43.0093 112.446 42.153C111.834 41.2966 111.505 40.3396 111.462 39.2776H115.085C115.148 40.0205 115.49 40.6376 116.115 41.1371C116.74 41.6367 117.521 41.8843 118.463 41.8843C119.447 41.8843 120.207 41.687 120.747 41.2966C121.288 40.9063 121.562 40.4025 121.562 39.7897C121.562 39.1348 121.258 38.6479 120.654 38.3289C120.05 38.0099 119.092 37.6615 117.783 37.2795C116.512 36.9185 115.482 36.5701 114.684 36.23C113.886 35.89 113.198 35.3737 112.611 34.6727C112.028 33.9759 111.737 33.0524 111.737 31.9106C111.737 30.9788 112.003 30.1266 112.535 29.3543C113.067 28.5819 113.827 27.9732 114.823 27.5283C115.816 27.0833 116.956 26.8608 118.248 26.8608C120.173 26.8608 121.722 27.3646 122.896 28.3678C124.074 29.3752 124.703 30.7437 124.784 32.4815H121.283C121.22 31.6966 120.916 31.0753 120.363 30.6094C119.81 30.1434 119.062 29.9125 118.121 29.9125C117.2 29.9125 116.495 30.093 116.001 30.454C115.512 30.815 115.267 31.2894 115.267 31.8813C115.267 32.3472 115.431 32.7376 115.756 33.0566C116.082 33.3756 116.483 33.6233 116.951 33.8038C117.424 33.9843 118.117 34.211 119.037 34.488C120.266 34.828 121.275 35.1722 122.06 35.5206C122.85 35.869 123.53 36.3854 124.1 37.0612C124.674 37.7412 124.969 38.6395 124.99 39.7603C124.99 40.7551 124.724 41.645 124.192 42.43C123.66 43.215 122.909 43.8278 121.938 44.2728C120.967 44.7177 119.822 44.9402 118.514 44.9402C117.192 44.9318 115.997 44.6842 114.946 44.1846Z" fill="#6D6D6D"/>
<path d="M128.668 31.1509C129.373 29.795 130.336 28.7414 131.552 27.99C132.768 27.2386 134.115 26.8608 135.588 26.8608C136.918 26.8608 138.079 27.1295 139.072 27.671C140.064 28.2125 140.858 28.8841 141.449 29.6859V27.1463H144.978V44.6464H141.449V42.0438C140.853 42.8708 140.047 43.5592 139.025 44.1091C138.003 44.659 136.834 44.936 135.525 44.936C134.072 44.936 132.742 44.5498 131.535 43.7775C130.327 43.0051 129.373 41.9263 128.664 40.5369C127.954 39.1474 127.604 37.5775 127.604 35.8187C127.608 34.0599 127.959 32.5067 128.668 31.1509ZM140.731 32.7376C140.25 31.8477 139.62 31.1719 138.844 30.7059C138.067 30.24 137.226 30.0091 136.327 30.0091C135.428 30.0091 134.588 30.2358 133.811 30.6933C133.034 31.1509 132.405 31.8141 131.923 32.6956C131.442 33.5729 131.201 34.6181 131.201 35.8229C131.201 37.0276 131.442 38.0896 131.923 39.0005C132.405 39.9114 133.038 40.604 133.828 41.0826C134.613 41.5569 135.449 41.7962 136.327 41.7962C137.226 41.7962 138.067 41.5653 138.844 41.0994C139.62 40.6334 140.25 39.9492 140.731 39.0509C141.212 38.1526 141.453 37.099 141.453 35.89C141.449 34.6769 141.208 33.6275 140.731 32.7376Z" fill="#6D6D6D"/>
</svg>
